<svg width="24" height="24" viewBox="0 0 24 24" fill="none" xmlns="http://www.w3.org/2000/svg">
<path d="M15.2497 2C16.408 2 17.3618 2.87524 17.486 4.00044L18.7537 4C19.6719 4 20.4249 4.70711 20.4979 5.60647L20.5037 5.75V8.75C20.5037 10.483 19.1473 11.8992 17.4382 11.9949L17.2279 12.0007C16.5601 14.0909 14.7295 15.6615 12.4968 15.9517L12.4962 17.5H14.2497C15.9827 17.5 17.3989 18.8565 17.4945 20.5656L17.4997 20.75V21.25C17.4997 21.6297 17.2175 21.9435 16.8515 21.9932L16.7497 22H6.74666C6.36696 22 6.05317 21.7178 6.00351 21.3518L5.99666 21.25V20.75C5.99666 19.017 7.35312 17.6008 9.06224 17.5051L9.24666 17.5H10.9962L10.9965 15.9513C8.76525 15.6601 6.93597 14.09 6.26845 12.0007L6.24219 12C4.44727 12 2.99219 10.5449 2.99219 8.75V5.75C2.99219 4.7835 3.7757 4 4.74219 4L6.01034 4.00044C6.13451 2.87524 7.08837 2 8.24666 2H15.2497ZM14.2497 19H9.24666C8.4169 19 7.72202 19.5775 7.54201 20.3525L7.51438 20.5H15.982C15.8678 19.7018 15.215 19.0774 14.4036 19.0067L14.2497 19ZM15.2497 3.5H8.24666C7.83245 3.5 7.49666 3.83579 7.49666 4.25V10.2485C7.49666 12.5965 9.40013 14.5 11.7482 14.5C14.0962 14.5 15.9997 12.5965 15.9997 10.2485V4.25C15.9997 3.83579 15.6639 3.5 15.2497 3.5ZM18.7537 5.5H17.4997V10.4829C18.2997 10.3703 18.9261 9.71683 18.997 8.90415L19.0037 8.75V5.75C19.0037 5.63165 18.9215 5.53251 18.8111 5.5066L18.7537 5.5ZM5.99666 5.5H4.74219C4.60412 5.5 4.49219 5.61193 4.49219 5.75V8.75C4.49219 9.63317 5.14641 10.3635 5.99666 10.4829V5.5Z" fill="#017567"/>
</svg>
