<svg width="45" height="45" viewBox="0 0 45 45" fill="none" xmlns="http://www.w3.org/2000/svg">
<rect x="0.5" y="0.171875" width="44" height="44" rx="22" fill="#009AD5"/>
<path d="M18.0469 22.2812C16.6406 22.6719 15.7031 23.8828 15.8203 25.1719C16.25 24.6641 16.9531 24.2344 17.7734 23.9609L18.0469 22.2812ZM13.7109 24.1953L12.5 17.2031C12.4609 17.125 12.5 17.0859 12.5 17.0859C14.7656 15.8359 17.3047 15.1719 19.8828 15.1719C19.9219 15.1719 20 15.1719 20.0781 15.2109C20.625 14.6641 21.2891 14.3125 22.0703 14.1953C22.8125 14.0391 23.5547 14 24.2969 13.9609C23.9062 13.4141 23.3594 13.0234 22.6953 12.9062C21.7578 12.75 20.8203 12.6719 19.8828 12.6719C16.875 12.6719 13.9453 13.4531 11.2891 14.9375C10.3516 15.4453 9.84375 16.5391 10.0391 17.6328L11.25 24.6641C11.8359 27.7891 16.6016 30.2109 19.2578 30.2109C19.375 30.2109 19.4922 30.1719 19.6484 30.1719C19.1016 29.5078 18.5156 28.5703 18.0859 27.5156C16.25 27.0078 13.9453 25.5234 13.7109 24.1953ZM17.5391 18.8438C17.5 18.6875 17.4609 18.5312 17.3828 18.4141C17.0703 18.7656 16.5625 19 15.9766 19.1172C15.4297 19.2344 14.8828 19.1172 14.4531 18.9219C14.4141 19.0781 14.4141 19.2344 14.4531 19.3906C14.6094 20.25 15.4297 20.7969 16.25 20.6406C17.1094 20.4844 17.6953 19.7031 17.5391 18.8438ZM33.6719 17.3984C30.1953 15.4844 26.2109 14.7812 22.2656 15.4062C21.2109 15.5625 20.3516 16.4219 20.1562 17.5156L18.9453 24.5469C18.3203 27.9453 22.6562 32.2031 25.1172 32.6328C27.5781 33.0625 33.0859 30.5234 33.7109 27.125L34.9219 20.1328C35.1172 19.0391 34.6094 17.9453 33.6719 17.3984ZM23.0078 21.1875C23.1641 20.3281 23.9844 19.7812 24.8047 19.9375C25.6641 20.0938 26.25 20.875 26.0938 21.7344C26.0547 21.8906 26.0156 22.0469 25.9375 22.1641C25.625 21.8516 25.1172 21.5781 24.5312 21.4609C23.9844 21.3828 23.4375 21.4609 23.0078 21.6562C22.9688 21.5 22.9688 21.3438 23.0078 21.1875ZM25.7812 28.9609C23.5938 28.5703 22.1094 26.6562 22.2656 24.5469C23.0859 25.5625 24.4922 26.3438 26.1719 26.6562C27.8516 26.9297 29.4531 26.6562 30.5469 25.9922C30 28.0234 27.9297 29.3516 25.7812 28.9609ZM30.8594 23.0625C30.5469 22.7109 30.0391 22.4375 29.4922 22.3203C28.9062 22.2422 28.3594 22.3203 27.9297 22.5156C27.9297 22.3984 27.8906 22.2031 27.9297 22.0469C28.0859 21.2266 28.9062 20.6406 29.7266 20.7969C30.5859 20.9531 31.1719 21.7734 31.0156 22.5938C30.9766 22.75 30.9375 22.9062 30.8594 23.0625Z" fill="white"/>
</svg>
