<svg width="44" height="44" viewBox="0 0 44 44" fill="none" xmlns="http://www.w3.org/2000/svg">
<rect width="44" height="44" rx="22" fill="#009AD5"/>
<path d="M32.1719 13.7891C30.0234 13.9062 25.7656 14.3359 23.1484 15.9375C22.9531 16.0547 22.8359 16.25 22.8359 16.4453V30.6641C22.8359 31.1328 23.3438 31.4062 23.7734 31.2109C26.4688 29.8438 30.375 29.4531 32.2891 29.375C32.9531 29.3359 33.4609 28.7891 33.4609 28.1641V14.9609C33.5 14.2969 32.875 13.75 32.1719 13.7891ZM21.3125 15.9375C18.6953 14.3359 14.4375 13.9062 12.2891 13.7891C11.5859 13.75 11 14.2969 11 14.9609V28.1641C11 28.7891 11.5078 29.3359 12.1719 29.375C14.0859 29.4531 17.9922 29.8438 20.6875 31.2109C21.1172 31.4062 21.625 31.1328 21.625 30.6641V16.4453C21.625 16.25 21.5078 16.0547 21.3125 15.9375Z" fill="white"/>
</svg>
