<svg width="24" height="24" viewBox="0 0 24 24" fill="none" xmlns="http://www.w3.org/2000/svg">
<path d="M11.997 5C13.6138 5 15.0983 5.55353 16.2833 6.47406L19.9205 3.00409C17.8058 1.13995 15.0377 0 11.997 0C7.3894 0 3.39368 2.59991 1.38281 6.40985L5.42725 9.60278C6.40698 6.91937 8.97449 5 11.997 5Z" fill="#F44336"/>
<path d="M23.8961 13.5018C23.9586 13.0102 24 12.5087 24 12C24 11.1422 23.9063 10.3068 23.7352 9.5H12V14.5H18.4862C17.9615 15.8638 17.0272 17.0178 15.838 17.8195L19.8975 21.0243C22.0494 19.1354 23.522 16.4904 23.8961 13.5018Z" fill="#2196F3"/>
<path d="M5 12C5 11.1566 5.15686 10.3516 5.43024 9.60278L1.3858 6.40985C0.504333 8.08002 0 9.98016 0 12C0 13.9973 0.495056 15.8763 1.35822 17.533L5.40778 14.3359C5.14844 13.6044 5 12.8204 5 12Z" fill="#FFC107"/>
<path d="M12.0012 19C8.95563 19 6.37158 17.0515 5.40894 14.3359L1.35938 17.533C3.36041 21.3735 7.37097 24 12.0012 24C15.0289 24 17.7899 22.8752 19.8986 21.0243L15.8392 17.8195C14.7424 18.5589 13.4296 19 12.0012 19Z" fill="#00B060"/>
<path opacity="0.1" d="M11.9993 23.75C8.46765 23.75 5.29205 22.2928 3.04688 19.9713C5.24469 22.4378 8.43579 24 11.9993 24C15.5299 24 18.6946 22.4686 20.8875 20.0408C18.6489 22.3246 15.4974 23.75 11.9993 23.75Z" fill="black"/>
<path opacity="0.1" d="M12 14.25V14.5H18.4862L18.5875 14.25H12Z" fill="black"/>
<path d="M23.9923 12.147C23.993 12.0978 23.9978 12.0494 23.9978 12C23.9978 11.986 23.9956 11.9725 23.9955 11.9586C23.9949 12.0215 23.9917 12.0838 23.9923 12.147Z" fill="#E6E6E6"/>
<path opacity="0.2" d="M12 9.5V9.75H23.7856C23.7698 9.66748 23.7526 9.58191 23.7352 9.5H12Z" fill="white"/>
<path d="M23.7352 9.5H12V14.5H18.4862C17.4775 17.1216 14.9772 19 12 19C8.13403 19 5 15.866 5 12C5 8.13397 8.13403 5 12 5C13.4019 5 14.6939 5.43066 15.7885 6.14069C15.9561 6.24957 16.1289 6.35181 16.2863 6.47406L19.9235 3.00409L19.8414 2.94098C17.7369 1.11707 15.0035 0 12 0C5.37256 0 0 5.37256 0 12C0 18.6274 5.37256 24 12 24C18.1177 24 23.1555 19.4188 23.8961 13.5018C23.9586 13.0102 24 12.5087 24 12C24 11.1422 23.9063 10.3068 23.7352 9.5Z" fill="url(#paint0_linear_207_2006)"/>
<path opacity="0.1" d="M15.7885 5.89069C14.6939 5.18066 13.4019 4.75 12 4.75C8.13403 4.75 5 7.88397 5 11.75C5 11.7922 5.00057 11.8251 5.0013 11.8672C5.06874 8.05951 8.17621 5 12 5C13.4019 5 14.6939 5.43066 15.7885 6.14069C15.9561 6.24957 16.1289 6.35181 16.2863 6.47406L19.9235 3.00409L16.2863 6.22406C16.1289 6.10181 15.9561 5.99957 15.7885 5.89069Z" fill="black"/>
<path opacity="0.2" d="M12 0.25C14.975 0.25 17.6829 1.34839 19.7793 3.1416L19.9235 3.00409L19.8134 2.90827C17.709 1.08436 15.0035 0 12 0C5.37256 0 0 5.37256 0 12C0 12.0422 0.0058594 12.0829 0.0062866 12.125C0.0740356 5.55585 5.41473 0.25 12 0.25Z" fill="white"/>
<defs>
<linearGradient id="paint0_linear_207_2006" x1="0" y1="12" x2="24" y2="12" gradientUnits="userSpaceOnUse">
<stop stop-color="white" stop-opacity="0.2"/>
<stop offset="1" stop-color="white" stop-opacity="0"/>
</linearGradient>
</defs>
</svg>
