<svg width="45" height="44" viewBox="0 0 45 44" fill="none" xmlns="http://www.w3.org/2000/svg">
<rect x="0.5" width="44" height="44" rx="22" fill="#01DAC1"/>
<path d="M16.25 31.25H28.75V17.5H27.5V15.625C27.5 14.6094 26.6406 13.75 25.625 13.75H19.375C18.3203 13.75 17.5 14.6094 17.5 15.625V17.5H16.25V31.25ZM20 16.25H25V17.5H20V16.25ZM32.5 19.375C32.5 18.3594 31.6406 17.5 30.625 17.5H30V31.25H30.625C31.6406 31.25 32.5 30.4297 32.5 29.375V19.375ZM15 31.25V17.5H14.375C13.3203 17.5 12.5 18.3594 12.5 19.375V29.375C12.5 30.4297 13.3203 31.25 14.375 31.25H15ZM26.25 23.125V24.375C26.25 24.7266 25.9375 25 25.625 25H23.75V26.875C23.75 27.2266 23.4375 27.5 23.125 27.5H21.875C21.5234 27.5 21.25 27.2266 21.25 26.875V25H19.375C19.0234 25 18.75 24.7266 18.75 24.375V23.125C18.75 22.8125 19.0234 22.5 19.375 22.5H21.25V20.625C21.25 20.3125 21.5234 20 21.875 20H23.125C23.4375 20 23.75 20.3125 23.75 20.625V22.5H25.625C25.9375 22.5 26.25 22.8125 26.25 23.125Z" fill="white"/>
</svg>
