<svg width="30" height="30" viewBox="0 0 30 30" fill="none" xmlns="http://www.w3.org/2000/svg">
<rect width="30" height="30" rx="2" fill="#E6E6E6"/>
<path d="M6.75 8C6.33579 8 6 8.33579 6 8.75V14C6 19.0012 8.95756 22.6757 14.7251 24.9478C14.9018 25.0174 15.0982 25.0174 15.2749 24.9478C21.0424 22.6757 24 19.0012 24 14V8.75C24 8.33579 23.6642 8 23.25 8C20.5866 8 17.992 7.05652 15.45 5.15C15.1833 4.95 14.8167 4.95 14.55 5.15C12.008 7.05652 9.41341 8 6.75 8ZM7.5 14V9.47793C10.0773 9.32585 12.5808 8.38829 15 6.67782C17.4192 8.38829 19.9227 9.32585 22.5 9.47793V14C22.5 18.2556 20.0466 21.3789 15 23.4419C9.95337 21.3789 7.5 18.2556 7.5 14ZM13.0739 18.5066C12.7839 17.7364 12.5875 16.7894 12.5231 15.75H11.0702C11.2957 16.9389 12.0474 17.9416 13.0739 18.5066ZM14.5978 18.2684C14.7667 18.6399 14.9094 18.829 15 18.9232C15.0906 18.829 15.2333 18.6399 15.4022 18.2684C15.6817 17.6536 15.9005 16.7798 15.9737 15.75H14.0263C14.0995 16.7798 14.3183 17.6536 14.5978 18.2684ZM14.5978 11.7316C14.3183 12.3464 14.0995 13.2202 14.0263 14.25H15.9737C15.9005 13.2202 15.6817 12.3464 15.4022 11.7316C15.2333 11.3601 15.0906 11.171 15 11.0768C14.9094 11.171 14.7667 11.3601 14.5978 11.7316ZM16.9261 18.5066C17.9526 17.9416 18.7043 16.9389 18.9298 15.75H17.4769C17.4125 16.7894 17.2161 17.7364 16.9261 18.5066ZM17.4769 14.25H18.9298C18.7043 13.0611 17.9526 12.0584 16.9261 11.4934C17.2161 12.2636 17.4125 13.2106 17.4769 14.25ZM11.0702 14.25H12.5231C12.5875 13.2106 12.7839 12.2636 13.0739 11.4934C12.0474 12.0584 11.2957 13.0611 11.0702 14.25ZM15 9.5C18.0376 9.5 20.5 11.9624 20.5 15C20.5 18.0376 18.0376 20.5 15 20.5C11.9624 20.5 9.5 18.0376 9.5 15C9.5 11.9624 11.9624 9.5 15 9.5Z" fill="#212121"/>
</svg>
