<svg width="30" height="30" viewBox="0 0 30 30" fill="none" xmlns="http://www.w3.org/2000/svg">
<rect width="30" height="30" rx="4" fill="#E6E6E6"/>
<path d="M15.4 13.9994C16.7255 13.9994 17.8 12.9249 17.8 11.5994C17.8 10.2739 16.7255 9.19941 15.4 9.19941C14.0745 9.19941 13 10.2739 13 11.5994C13 12.9249 14.0745 13.9994 15.4 13.9994ZM15.4 19.9994C18.4 19.9994 19.6 18.4936 19.6 16.9994C19.6 16.0053 18.7941 15.1994 17.8 15.1994H13C12.0059 15.1994 11.2 16.0053 11.2 16.9994C11.2 18.4993 12.4 19.9994 15.4 19.9994ZM15.7329 5.10076C15.5313 4.96641 15.2687 4.96641 15.0672 5.10076C12.7414 6.65132 10.226 7.61876 7.51515 8.00604C7.21955 8.04825 7 8.3014 7 8.6V14C7 18.6696 9.76839 22.0768 15.1846 24.16C15.3233 24.2133 15.4768 24.2133 15.6154 24.16C21.0316 22.0768 23.8 18.6696 23.8 14V8.6C23.8 8.3014 23.5804 8.04825 23.2848 8.00604C20.574 7.61876 18.0586 6.65132 15.7329 5.10076ZM8.2 9.11344C10.5825 8.70866 12.8233 7.87527 14.919 6.615L15.4 6.31658L15.8811 6.615C17.9768 7.87527 20.2175 8.70866 22.6 9.11344V14C22.6 18.0704 20.2385 21.0361 15.4 22.9558C10.5615 21.0361 8.2 18.0704 8.2 14V9.11344Z" fill="#212121"/>
</svg>
