<svg width="251" height="63" viewBox="0 0 251 63" fill="none" xmlns="http://www.w3.org/2000/svg">
<path fill-rule="evenodd" clip-rule="evenodd" d="M35.3453 0V62.9895H34.0107V0H35.3453ZM184.763 1.8756V60.2111H183.429V1.8756H184.763ZM68.2485 6.98068V55.1065H66.914V6.98068H68.2485ZM164.199 6.98068V55.1065H162.865V6.98068H164.199ZM168.312 9.89596V52.1894H166.978V9.89596H168.312ZM180.65 9.89596V52.1894H179.316V9.89596H180.65ZM192.989 9.89596V52.1894H191.655V9.89596H192.989ZM218.06 12.2252V49.8609H216.726V12.2252H218.06ZM31.233 14.2722V47.8148H29.8985V14.2722H31.233ZM151.861 14.2722V47.8148H150.525V14.2722H151.861ZM172.425 14.2722V47.8148H171.091V14.2722H172.425ZM39.4585 17.1898V44.8977H38.1239V17.1898H39.4585ZM47.6845 17.1898V44.8977H46.3498V17.1898H47.6845ZM160.086 17.1898V44.8977H158.752V17.1898H160.086ZM64.1358 17.9174V44.1689H62.8012V17.9174H64.1358ZM84.6999 17.9174V44.1689H83.3653V17.9174H84.6999ZM109.944 17.9174V44.1689H108.609V17.9174H109.944ZM197.103 17.9174V44.1689H195.768V17.9174H197.103ZM205.328 17.9174V44.1689H203.993V17.9174H205.328ZM230.572 17.9174V44.1689H229.237V17.9174H230.572ZM188.877 18.0173V44.069H187.542V18.0173H188.877ZM72.3618 21.5637V40.523H71.0271V21.5637H72.3618ZM118.169 21.5637V40.523H116.835V21.5637H118.169ZM155.973 21.5637V40.523H154.639V21.5637H155.973ZM238.798 21.5637V40.523H237.463V21.5637H238.798ZM213.751 22.5366V39.5498H212.416V22.5366H213.751ZM27.1199 22.7315V39.3559H25.7852V22.7315H27.1199ZM147.748 22.7315V39.3559H146.413V22.7315H147.748ZM9.33341 39.0644V23.0224H10.6679V39.0644H9.33341ZM129.961 39.0644V23.0224H131.296V39.0644H129.961ZM220.839 38.994V23.0929H222.173V38.994H220.839ZM43.5712 23.7511V38.3356H42.2367V23.7511H43.5712ZM176.341 23.7511V38.3356H175.006V23.7511H176.341ZM88.8131 25.2101V36.8771H87.4786V25.2101H88.8131ZM201.215 25.2101V36.8771H199.88V25.2101H201.215ZM209.44 25.2101V36.8771H208.106V25.2101H209.44ZM114.057 25.9401V36.1473H112.722V25.9401H114.057ZM234.685 25.9401V36.1473H233.35V25.9401H234.685ZM51.7972 26.6676V35.4185H50.4625V26.6676H51.7972ZM60.0226 26.6676V35.4185H58.688V26.6676H60.0226ZM76.4745 26.6676V35.4185H75.1399V26.6676H76.4745ZM97.4324 26.6676V35.4185H96.0979V26.6676H97.4324ZM105.831 26.6676V35.4185H104.496V26.6676H105.831ZM122.283 26.6676V35.4185H120.948V26.6676H122.283ZM226.458 26.6676V35.4185H225.124V26.6676H226.458ZM242.909 26.6676V35.4185H241.575V26.6676H242.909ZM14.7812 28.1265V33.96H13.4466V28.1265H14.7812ZM135.409 28.1265V33.96H134.075V28.1265H135.409ZM18.8944 28.8552V33.2312H17.5599V28.8552H18.8944ZM55.7129 28.8552V33.2312H54.3783V28.8552H55.7129ZM80.5876 28.8552V33.2312H79.2531V28.8552H80.5876ZM93.1228 28.8552V33.2312H91.7882V28.8552H93.1228ZM126.395 28.8552V33.2312H125.061V28.8552H126.395ZM139.522 28.8552V33.2312H138.188V28.8552H139.522ZM247.023 28.8552V33.2312H245.688V28.8552H247.023ZM0 33.2317V28.8556H1.33457V33.2317H0ZM23.0072 29.5852V32.5014H21.6725V29.5852H23.0072ZM143.635 29.5852V32.5014H142.3V29.5852H143.635ZM4.59266 31.7728V30.3141H5.92724V31.7728H4.59266ZM100.211 31.7728V30.3141H101.546V31.7728H100.211ZM249.666 31.7728V30.3141H251V31.7728H249.666Z" fill="url(#paint0_linear_207_36)" fill-opacity="0.5"/>
<path d="M40.5744 43.006C40.3104 43.006 40.0944 42.922 39.9264 42.754C39.7584 42.562 39.6744 42.346 39.6744 42.106V18.706C39.6744 18.442 39.7584 18.226 39.9264 18.058C40.0944 17.89 40.3104 17.806 40.5744 17.806H50.6545C52.6465 17.806 54.3745 18.118 55.8385 18.742C57.3265 19.342 58.4785 20.254 59.2944 21.478C60.1345 22.702 60.5545 24.25 60.5545 26.122C60.5545 27.97 60.1345 29.494 59.2944 30.694C58.4785 31.894 57.3265 32.782 55.8385 33.358C54.3745 33.934 52.6465 34.222 50.6545 34.222H46.3704V42.106C46.3704 42.346 46.2744 42.562 46.0824 42.754C45.9144 42.922 45.6984 43.006 45.4344 43.006H40.5744ZM46.2625 29.254H50.4744C51.5064 29.254 52.3225 28.99 52.9225 28.462C53.5465 27.934 53.8585 27.13 53.8585 26.05C53.8585 25.138 53.5945 24.37 53.0665 23.746C52.5385 23.122 51.6744 22.81 50.4744 22.81H46.2625V29.254ZM75.0186 43.366C72.8106 43.366 70.8906 43.006 69.2586 42.286C67.6266 41.566 66.3546 40.486 65.4426 39.046C64.5306 37.582 64.0266 35.758 63.9306 33.574C63.9066 32.542 63.8946 31.51 63.8946 30.478C63.8946 29.422 63.9066 28.378 63.9306 27.346C64.0266 25.186 64.5306 23.374 65.4426 21.91C66.3786 20.422 67.6626 19.306 69.2946 18.562C70.9506 17.818 72.8586 17.446 75.0186 17.446C77.2026 17.446 79.1106 17.818 80.7426 18.562C82.3746 19.306 83.6586 20.422 84.5946 21.91C85.5306 23.374 86.0346 25.186 86.1066 27.346C86.1546 28.378 86.1786 29.422 86.1786 30.478C86.1786 31.51 86.1546 32.542 86.1066 33.574C86.0346 35.758 85.5306 37.582 84.5946 39.046C83.6826 40.486 82.4106 41.566 80.7786 42.286C79.1466 43.006 77.2266 43.366 75.0186 43.366ZM75.0186 38.182C76.2906 38.182 77.3226 37.798 78.1146 37.03C78.9306 36.262 79.3626 35.038 79.4106 33.358C79.4586 32.302 79.4826 31.306 79.4826 30.37C79.4826 29.434 79.4586 28.462 79.4106 27.454C79.3626 26.326 79.1466 25.414 78.7626 24.718C78.4026 23.998 77.8986 23.47 77.2506 23.134C76.6026 22.798 75.8586 22.63 75.0186 22.63C74.2026 22.63 73.4706 22.798 72.8226 23.134C72.1746 23.47 71.6586 23.998 71.2746 24.718C70.8906 25.414 70.6746 26.326 70.6266 27.454C70.6026 28.462 70.5906 29.434 70.5906 30.37C70.5906 31.306 70.6026 32.302 70.6266 33.358C70.6986 35.038 71.1306 36.262 71.9226 37.03C72.7386 37.798 73.7706 38.182 75.0186 38.182ZM91.9715 43.006C91.7075 43.006 91.4915 42.922 91.3235 42.754C91.1555 42.562 91.0715 42.346 91.0715 42.106V18.706C91.0715 18.442 91.1555 18.226 91.3235 18.058C91.4915 17.89 91.7075 17.806 91.9715 17.806H101.331C103.683 17.806 105.687 18.19 107.343 18.958C108.999 19.702 110.271 20.806 111.159 22.27C112.047 23.71 112.527 25.498 112.599 27.634C112.623 28.69 112.635 29.614 112.635 30.406C112.635 31.198 112.623 32.11 112.599 33.142C112.503 35.374 112.023 37.222 111.159 38.686C110.319 40.15 109.083 41.242 107.451 41.962C105.843 42.658 103.863 43.006 101.511 43.006H91.9715ZM97.5515 37.822H101.331C102.363 37.822 103.215 37.666 103.887 37.354C104.583 37.018 105.099 36.502 105.435 35.806C105.795 35.11 105.987 34.198 106.011 33.07C106.059 32.374 106.083 31.75 106.083 31.198C106.107 30.646 106.107 30.094 106.083 29.542C106.083 28.99 106.059 28.378 106.011 27.706C105.963 26.074 105.531 24.886 104.715 24.142C103.923 23.374 102.735 22.99 101.151 22.99H97.5515V37.822ZM127.893 43.366C125.637 43.366 123.693 42.994 122.061 42.25C120.429 41.506 119.157 40.414 118.245 38.974C117.357 37.534 116.865 35.746 116.769 33.61C116.745 32.626 116.733 31.57 116.733 30.442C116.733 29.314 116.745 28.234 116.769 27.202C116.865 25.114 117.369 23.338 118.281 21.874C119.193 20.41 120.465 19.306 122.097 18.562C123.729 17.818 125.661 17.446 127.893 17.446C129.477 17.446 130.941 17.65 132.285 18.058C133.629 18.442 134.805 19.018 135.813 19.786C136.821 20.53 137.601 21.442 138.153 22.522C138.729 23.578 139.029 24.778 139.053 26.122C139.077 26.338 139.005 26.518 138.837 26.662C138.693 26.806 138.513 26.878 138.297 26.878H133.437C133.125 26.878 132.885 26.818 132.717 26.698C132.549 26.554 132.405 26.302 132.285 25.942C131.949 24.67 131.397 23.806 130.629 23.35C129.885 22.87 128.961 22.63 127.857 22.63C126.537 22.63 125.493 23.002 124.725 23.746C123.957 24.466 123.537 25.678 123.465 27.382C123.393 29.35 123.393 31.366 123.465 33.43C123.537 35.134 123.957 36.358 124.725 37.102C125.493 37.822 126.537 38.182 127.857 38.182C128.961 38.182 129.897 37.942 130.665 37.462C131.433 36.982 131.973 36.118 132.285 34.87C132.381 34.51 132.513 34.27 132.681 34.15C132.873 34.006 133.125 33.934 133.437 33.934H138.297C138.513 33.934 138.693 34.006 138.837 34.15C139.005 34.294 139.077 34.474 139.053 34.69C139.029 36.034 138.729 37.246 138.153 38.326C137.601 39.382 136.821 40.294 135.813 41.062C134.805 41.806 133.629 42.382 132.285 42.79C130.941 43.174 129.477 43.366 127.893 43.366ZM141.802 43.006C141.61 43.006 141.43 42.934 141.262 42.79C141.118 42.622 141.046 42.442 141.046 42.25C141.046 42.13 141.058 42.022 141.082 41.926L149.542 18.814C149.614 18.55 149.758 18.322 149.974 18.13C150.214 17.914 150.538 17.806 150.946 17.806H156.274C156.682 17.806 156.994 17.914 157.21 18.13C157.45 18.322 157.606 18.55 157.678 18.814L166.102 41.926C166.15 42.022 166.174 42.13 166.174 42.25C166.174 42.442 166.09 42.622 165.922 42.79C165.778 42.934 165.598 43.006 165.382 43.006H160.954C160.594 43.006 160.318 42.922 160.126 42.754C159.958 42.562 159.85 42.394 159.802 42.25L158.398 38.578H148.786L147.418 42.25C147.37 42.394 147.262 42.562 147.094 42.754C146.926 42.922 146.638 43.006 146.23 43.006H141.802ZM150.262 33.394H156.958L153.61 23.89L150.262 33.394ZM178.741 43.366C176.341 43.366 174.349 43.03 172.765 42.358C171.181 41.662 169.981 40.762 169.165 39.658C168.349 38.554 167.917 37.378 167.869 36.13C167.869 35.938 167.941 35.77 168.085 35.626C168.253 35.458 168.445 35.374 168.661 35.374H173.197C173.533 35.374 173.785 35.434 173.953 35.554C174.145 35.674 174.313 35.83 174.457 36.022C174.649 36.382 174.913 36.73 175.249 37.066C175.609 37.402 176.077 37.678 176.653 37.894C177.229 38.086 177.925 38.182 178.741 38.182C180.133 38.182 181.177 37.966 181.873 37.534C182.593 37.102 182.953 36.514 182.953 35.77C182.953 35.218 182.761 34.774 182.377 34.438C181.993 34.102 181.369 33.802 180.505 33.538C179.665 33.25 178.537 32.962 177.121 32.674C175.297 32.29 173.737 31.798 172.441 31.198C171.169 30.574 170.197 29.77 169.525 28.786C168.853 27.778 168.517 26.53 168.517 25.042C168.517 23.578 168.925 22.27 169.741 21.118C170.581 19.966 171.745 19.066 173.233 18.418C174.721 17.77 176.485 17.446 178.525 17.446C180.181 17.446 181.633 17.662 182.881 18.094C184.153 18.526 185.221 19.102 186.085 19.822C186.949 20.542 187.597 21.31 188.029 22.126C188.485 22.918 188.725 23.698 188.749 24.466C188.749 24.658 188.677 24.838 188.533 25.006C188.413 25.15 188.233 25.222 187.993 25.222H183.241C182.977 25.222 182.749 25.174 182.557 25.078C182.365 24.982 182.197 24.826 182.053 24.61C181.909 24.082 181.525 23.626 180.901 23.242C180.301 22.834 179.509 22.63 178.525 22.63C177.469 22.63 176.641 22.822 176.041 23.206C175.465 23.566 175.177 24.13 175.177 24.898C175.177 25.378 175.333 25.798 175.645 26.158C175.981 26.518 176.521 26.83 177.265 27.094C178.033 27.358 179.077 27.634 180.397 27.922C182.581 28.33 184.345 28.846 185.689 29.47C187.033 30.07 188.017 30.862 188.641 31.846C189.289 32.806 189.613 34.018 189.613 35.482C189.613 37.114 189.145 38.518 188.209 39.694C187.273 40.87 185.989 41.782 184.357 42.43C182.749 43.054 180.877 43.366 178.741 43.366ZM200.134 43.006C199.87 43.006 199.654 42.922 199.486 42.754C199.318 42.562 199.234 42.346 199.234 42.106V23.458H192.826C192.562 23.458 192.346 23.374 192.178 23.206C192.01 23.014 191.926 22.798 191.926 22.558V18.706C191.926 18.442 192.01 18.226 192.178 18.058C192.346 17.89 192.562 17.806 192.826 17.806H212.194C212.458 17.806 212.674 17.89 212.842 18.058C213.01 18.226 213.094 18.442 213.094 18.706V22.558C213.094 22.798 213.01 23.014 212.842 23.206C212.674 23.374 212.458 23.458 212.194 23.458H205.786V42.106C205.786 42.346 205.702 42.562 205.534 42.754C205.366 42.922 205.15 43.006 204.886 43.006H200.134Z" fill="url(#paint1_linear_207_36)"/>
<defs>
<linearGradient id="paint0_linear_207_36" x1="125.5" y1="0" x2="125.5" y2="62.9895" gradientUnits="userSpaceOnUse">
<stop stop-color="#01DAC1"/>
<stop offset="1" stop-color="#009AD5"/>
</linearGradient>
<linearGradient id="paint1_linear_207_36" x1="125.5" y1="9.00598" x2="126" y2="67" gradientUnits="userSpaceOnUse">
<stop stop-color="#01DAC1"/>
<stop offset="1" stop-color="#009AD5"/>
</linearGradient>
</defs>
</svg>
