<svg width="44" height="45" viewBox="0 0 44 45" fill="none" xmlns="http://www.w3.org/2000/svg">
<rect y="0.171875" width="44" height="44" rx="22" fill="#01DAC1"/>
<path d="M30.3594 12.75L17.8594 16.4219C17.3516 16.6172 17 17.0859 17 17.6328V27.8281C16.5703 27.75 16.1797 27.7109 15.75 27.6719C13.6797 27.6719 12 28.8047 12 30.1719C12 31.5781 13.6797 32.6719 15.75 32.6719C17.8203 32.6719 19.5 31.5781 19.5 30.1719V21.0703L29.5 18.1406V25.3281C29.0703 25.25 28.6797 25.2109 28.25 25.1719C26.1797 25.1719 24.5 26.3047 24.5 27.6719C24.5 29.0781 26.1797 30.1719 28.25 30.1719C30.3203 30.1719 32 29.0781 32 27.6719V13.9219C31.9609 13.2578 31.4141 12.7109 30.75 12.7109C30.5938 12.7109 30.4766 12.7109 30.3594 12.75Z" fill="white"/>
</svg>
