<svg width="427" height="107" viewBox="0 0 427 107" fill="none" xmlns="http://www.w3.org/2000/svg">
<path fill-rule="evenodd" clip-rule="evenodd" d="M60.1292 0V107H57.8588V0H60.1292ZM314.318 3.18608V102.28H312.049V3.18608H314.318ZM116.104 11.858V93.6091H113.834V11.858H116.104ZM279.335 11.858V93.6091H277.065V11.858H279.335ZM286.331 16.8102V88.6538H284.062V16.8102H286.331ZM307.322 16.8102V88.6538H305.052V16.8102H307.322ZM328.312 16.8102V88.6538H326.042V16.8102H328.312ZM370.963 20.7668V84.6985H368.693V20.7668H370.963ZM53.1335 24.2441V81.2227H50.8631V24.2441H53.1335ZM258.344 24.2441V81.2227H256.073V24.2441H258.344ZM293.328 24.2441V81.2227H291.058V24.2441H293.328ZM67.1266 29.2003V76.2674H64.8563V29.2003H67.1266ZM81.1206 29.2003V76.2674H78.8501V29.2003H81.1206ZM272.338 29.2003V76.2674H270.068V29.2003H272.338ZM109.107 30.4362V75.0294H106.837V30.4362H109.107ZM144.091 30.4362V75.0294H141.821V30.4362H144.091ZM187.035 30.4362V75.0294H184.766V30.4362H187.035ZM335.31 30.4362V75.0294H333.039V30.4362H335.31ZM349.304 30.4362V75.0294H347.032V30.4362H349.304ZM392.248 30.4362V75.0294H389.976V30.4362H392.248ZM321.317 30.6059V74.8598H319.045V30.6059H321.317ZM123.101 36.6302V68.8363H120.831V36.6302H123.101ZM201.029 36.6302V68.8363H198.759V36.6302H201.029ZM265.341 36.6302V68.8363H263.071V36.6302H265.341ZM406.241 36.6302V68.8363H403.972V36.6302H406.241ZM363.633 38.2828V67.1831H361.361V38.2828H363.633ZM46.1362 38.6139V66.8537H43.8657V38.6139H46.1362ZM251.348 38.6139V66.8537H249.078V38.6139H251.348ZM15.878 66.3584V39.1081H18.1483V66.3584H15.878ZM221.089 66.3584V39.1081H223.361V66.3584H221.089ZM375.69 66.239V39.2278H377.96V66.239H375.69ZM74.1232 40.3459V65.1204H71.8528V40.3459H74.1232ZM299.991 40.3459V65.1204H297.72V40.3459H299.991ZM151.088 42.8243V62.643H148.818V42.8243H151.088ZM342.305 42.8243V62.643H340.035V42.8243H342.305ZM356.299 42.8243V62.643H354.029V42.8243H356.299ZM194.034 44.0643V61.4032H191.762V44.0643H194.034ZM399.245 44.0643V61.4032H396.973V44.0643H399.245ZM88.1171 45.3001V60.1652H85.8466V45.3001H88.1171ZM102.11 45.3001V60.1652H99.8398V45.3001H102.11ZM130.098 45.3001V60.1652H127.828V45.3001H130.098ZM165.752 45.3001V60.1652H163.481V45.3001H165.752ZM180.039 45.3001V60.1652H177.769V45.3001H180.039ZM208.027 45.3001V60.1652H205.756V45.3001H208.027ZM385.249 45.3001V60.1652H382.98V45.3001H385.249ZM413.236 45.3001V60.1652H410.967V45.3001H413.236ZM25.1457 47.7783V57.6878H22.8754V47.7783H25.1457ZM230.358 47.7783V57.6878H228.088V47.7783H230.358ZM32.1431 49.0162V56.4497H29.8728V49.0162H32.1431ZM94.7786 49.0162V56.4497H92.5081V49.0162H94.7786ZM137.095 49.0162V56.4497H134.825V49.0162H137.095ZM158.42 49.0162V56.4497H156.15V49.0162H158.42ZM215.022 49.0162V56.4497H212.752V49.0162H215.022ZM237.354 49.0162V56.4497H235.084V49.0162H237.354ZM420.235 49.0162V56.4497H417.963V49.0162H420.235ZM0 56.4505V49.0169H2.27037V56.4505H0ZM39.1397 50.2563V55.2099H36.8692V50.2563H39.1397ZM244.351 50.2563V55.2099H242.079V50.2563H244.351ZM7.81301 53.9723V51.4945H10.0834V53.9723H7.81301ZM170.479 53.9723V51.4945H172.749V53.9723H170.479ZM424.73 53.9723V51.4945H427V53.9723H424.73Z" fill="#815BDB"/>
</svg>
